<svg xmlns="http://www.w3.org/2000/svg" xmlns:xlink="http://www.w3.org/1999/xlink" width="16" height="16" viewBox="0 0 16 16"><defs><style>.a{fill:#b7bedc;}.b{fill:#e47d78;opacity:0;}.c{clip-path:url(#a);}</style><clipPath id="a"><rect class="a" width="11.853" height="13.851" transform="translate(0 0)"/></clipPath></defs><g transform="translate(-1199 -432)"><rect class="b" width="16" height="16" transform="translate(1199 432)"/><g transform="translate(1201.073 433.074)"><g class="c"><path class="a" d="M11.254,13.851a.593.593,0,0,1-.6-.6A4.733,4.733,0,0,0,5.927,8.523,4.791,4.791,0,0,0,1.2,13.251a.593.593,0,0,1-.6.6.594.594,0,0,1-.6-.6A5.722,5.722,0,0,1,3.731,7.815l.294-.109-.268-.16A4.022,4.022,0,0,1,1.748,4.095,4.237,4.237,0,0,1,6.01,0,4.1,4.1,0,0,1,10.1,4.095,4.021,4.021,0,0,1,8.1,7.546L7.84,7.7l.278.113a5.892,5.892,0,0,1,3.736,5.438.594.594,0,0,1-.6.6M5.927,1.115a2.948,2.948,0,0,0-2.98,2.98,2.948,2.948,0,0,0,2.98,2.98,2.948,2.948,0,0,0,2.98-2.98,2.948,2.948,0,0,0-2.98-2.98"/></g></g></g></svg>