<svg xmlns="http://www.w3.org/2000/svg" width="20" height="20" viewBox="0 0 20 20"><defs><style>.a{fill:#ffcdcd;opacity:0;}.b{fill:#2f88ff;}</style></defs><g transform="translate(-1165 -82)"><rect class="a" width="20" height="20" transform="translate(1165 82)"/><path class="b" d="M40,48a8,8,0,1,1,8-8A8,8,0,0,1,40,48Zm0-1.067A6.933,6.933,0,1,0,33.067,40,6.933,6.933,0,0,0,40,46.933Zm.667-5.438v.374H39.333v-.374a3.4,3.4,0,0,1,.98-2.278c.441-.47.429-.457.555-.606a1.526,1.526,0,0,0,.465-1.01,1.333,1.333,0,0,0-2.667,0H37.333a2.667,2.667,0,1,1,5.333,0,2.779,2.779,0,0,1-.778,1.868c-.087.1-.181.21-.3.335-.045.048-.091.1-.153.163l-.153.163A2.118,2.118,0,0,0,40.667,41.495Zm-.1,1.938a.8.8,0,0,1,0,1.137.808.808,0,0,1-1.129,0,.8.8,0,0,1,0-1.137.8.8,0,0,1,1.129,0Z" transform="translate(1135 52)"/></g></svg>